<svg width="300" height="100" viewBox="0 0 611 116" fill="none" xmlns="http://www.w3.org/2000/svg">
<path d="M608 111.48L604.485 109.92L600.068 107.958H543.641V100.709L544.333 99.9841L552.174 91.7595V21.1033L544.212 17.5339L542.068 16.573L542.893 14.3738L544.709 9.53687L545.317 7.91577H599.16L603.578 5.95386L607.093 4.39331V37.6755L605.607 38.3357L602.885 39.5447L600.71 40.5105L599.637 38.3855L589.53 18.3572H568.518V51.6882H578.619L584.595 37.7263L585.245 36.2107H592.208V76.8083L591.094 77.5505L587.463 79.9685L584.688 81.8181L583.691 78.6355L578.522 62.1296H568.518V97.5164H589.171L600.548 75.0652L601.621 72.947L603.792 73.9109L606.514 75.1199L608 75.7791V111.48Z" stroke="white" stroke-width="5"/>
<path d="M509.134 6.82959C513.664 6.82959 517.767 8.05522 521.357 10.5386H521.356C524.953 12.9845 527.689 16.2872 529.56 20.3823H529.559C531.475 24.4431 532.419 28.8728 532.419 33.6343C532.419 38.0692 531.383 42.3239 529.336 46.3706L529.331 46.3813L529.326 46.3911C527.308 50.2942 524.636 53.7221 521.323 56.6646L521.313 56.6724C519.557 58.2165 517.732 59.5639 515.839 60.7124L516.969 61.2222L517.816 61.604L518.208 62.4468L531.977 92.0347L542.188 98.7798L543.85 99.8774L543.15 101.744L541.336 106.581L540.726 108.203H520.518L519.846 106.756L500.074 64.2515L496.144 60.4644L495.206 59.5591V94.9058L503.275 98.5913L505.396 99.5601L504.577 101.744L502.761 106.581L502.153 108.203H470.329V100.953L471.02 100.229L478.861 92.0044V21.1245L470.924 17.6675L468.747 16.7192L469.581 14.4976L471.396 9.66064L472.005 8.03857H484.265C489.698 8.03857 495.039 7.80037 500.286 7.32373L500.295 7.32275L500.304 7.32178L501.718 7.20752C504.914 6.95852 507.397 6.82961 509.134 6.82959ZM502.054 19.689C499.68 19.689 497.412 20.5038 495.206 22.313V58.6733L495.539 57.7866L496.9 54.1587L497.509 52.5366H504.324C507.822 52.5365 510.324 51.4042 512.14 49.2944C514.065 47.0485 515.166 43.8593 515.166 39.439C515.166 33.4127 513.906 28.6303 511.561 24.938L511.556 24.9292L511.551 24.9204C509.35 21.3891 506.284 19.689 502.054 19.689Z" stroke="white" stroke-width="5"/>
<path d="M434.11 7.37598L460.388 91.7812L468.879 98.6826L470.274 99.8164L469.642 101.501L467.827 106.338L467.219 107.959H435.395V100.7L436.097 99.9727L443.598 92.2129L437.599 73.0137H410.757L404.569 92.0146L418.508 98.3457L420.635 99.3125L419.814 101.501L417.999 106.338L417.39 107.959H385.567V100.71L386.258 99.9854L394.398 91.4473L419.908 13.5088L420.181 12.6738L420.917 12.1934L430.356 6.02637L433.127 4.21582L434.11 7.37598ZM414.199 62.5723H434.405L424.505 30.8633L414.199 62.5723Z" stroke="white" stroke-width="5"/>
<path d="M318.075 7.92041V15.2017L317.347 15.9331L311.736 21.564L327.839 82.0073L338.768 41.356L334.231 23.4468L326.527 17.1987L325.128 16.0649L325.76 14.3784L327.575 9.5415L328.184 7.92041H359.1V15.1812L358.397 15.9077L351.279 23.2593L365.528 81.4321L381.129 23.9175L366.921 17.5376L364.781 16.5767L365.605 14.3784L367.42 9.5415L368.029 7.92041H399.853V15.1753L399.156 15.9009L391.698 23.6646L370.084 102.256L369.833 103.168L369.04 103.686L359.602 109.853L356.67 111.768L355.811 108.375L343.742 60.7495L332.696 102.237L332.448 103.163L331.647 103.686L322.207 109.853L319.331 111.732L318.428 108.417L295.316 23.5923L287.331 17.2095L285.913 16.0776L286.551 14.3784L288.366 9.5415L288.975 7.92041H318.075Z" stroke="white" stroke-width="5"/>
<path d="M282.651 39.6416H275.07L274.414 38.1484C269.017 25.8785 262.296 20.6573 254.556 20.6572C251.295 20.6572 248.227 21.9159 245.291 24.6904L245.284 24.6973C242.396 27.4044 240.012 31.3216 238.228 36.6104L238.224 36.6211C236.452 41.7994 235.545 47.6861 235.545 54.3115C235.545 62.0134 236.43 68.9928 238.171 75.2666L238.517 76.4199C240.294 82.0973 242.814 86.5705 246.008 89.9395L246.323 90.2588C249.595 93.499 253.531 95.1005 258.277 95.1006C260.078 95.1006 262.689 94.1635 266.239 91.6826C269.729 89.2434 273.845 85.513 278.594 80.4189L281.116 77.7139L282.686 81.0615L285.41 86.8652L286.141 88.4248L284.944 89.6641L268.244 106.956L267.923 107.287L267.505 107.483C265.088 108.615 262.686 109.379 260.304 109.743C258.091 110.17 255.719 110.379 253.195 110.379C246.466 110.379 240.442 108.253 235.209 104.042L234.707 103.628C229.418 99.1921 225.384 93.1653 222.54 85.6709L222.537 85.6621C219.691 78.0793 218.292 69.5515 218.292 60.1162C218.292 50.3067 220.436 41.2044 224.743 32.8516C228.998 24.518 234.337 17.8744 240.8 13.0146C247.178 8.13899 253.534 5.50008 259.82 5.5C263.329 5.5 267.262 6.15906 271.588 7.41211L271.587 7.41309C275.899 8.64462 279.31 10.0253 281.595 11.6426L282.651 12.3896V39.6416Z" stroke="white" stroke-width="5"/>
<path d="M156.59 7.92041L157.317 9.14502L194.689 72.1616V22.8823L186.364 17.3374L184.711 16.2368L185.409 14.3784L187.224 9.5415L187.833 7.92041H213.303V15.2983L212.603 16.0249L204.681 24.2446V108.083H195.765L195.039 106.859L156.577 42.0239V93.0063L165.002 98.6724L166.642 99.7749L165.948 101.625L164.132 106.462L163.524 108.083H138.053V100.834L138.745 100.11L146.585 91.8853V23.311L138.189 17.2886L136.632 16.1724L137.305 14.3784L139.121 9.5415L139.729 7.92041H156.59Z" stroke="white" stroke-width="5"/>
<path d="M94.1387 7.92041V15.1821L93.4336 15.9087L86.1855 23.3833L101.394 56.3081L116.929 23.9683L104.545 17.4712L102.59 16.4458L103.365 14.3784L105.181 9.5415L105.789 7.92041H137.613V15.3589L136.689 16.1089L129.682 21.8003L106.572 69.9976V94.6655L114.642 98.3521L116.763 99.3208L115.943 101.504L114.128 106.341L113.52 107.962H81.6953V100.713L82.3867 99.9888L90.2275 91.7642V71.7954L67.3789 22.6392L60.6582 17.2007L59.2578 16.0659L59.8906 14.3784L61.7061 9.5415L62.3145 7.92041H94.1387Z" stroke="white" stroke-width="5"/>
<path d="M55.6494 39.6416H48.0908L47.4248 38.1748C44.5356 31.8118 41.4158 27.0111 38.1172 23.6592L38.1016 23.6436C34.9138 20.3486 31.8325 18.964 28.8262 18.9639C26.2183 18.9639 24.2122 19.9966 22.6064 22.2607L22.6074 22.2617C20.9939 24.5417 20.0713 27.6965 20.0713 31.9424C20.0714 34.0853 20.6688 36.105 21.918 38.0479C23.3354 40.0734 25.054 41.8922 27.085 43.5049L27.9717 44.1816C30.136 45.8181 32.9799 47.8638 36.5137 50.3232C41.0004 53.3134 44.6887 56.0119 47.5547 58.416L48.1123 58.8779C50.8553 61.1995 53.1745 63.9024 55.0654 66.9775L55.4678 67.623C57.4141 70.8769 58.373 74.5223 58.373 78.4961C58.373 83.0948 56.82 87.8823 53.9482 92.8135L53.9443 92.8213L53.9395 92.8291C51.2545 97.3601 47.9965 101.279 44.1641 104.568L43.3896 105.218L43.3799 105.225C39.296 108.54 35.2087 110.5 31.1855 110.5C27.0122 110.5 22.1313 109.861 16.5752 108.627L16.5693 108.625C11.1356 107.405 6.95021 106.05 4.24414 104.479L3 103.756V76.3584H10.5322L11.209 77.79C14.2027 84.1247 17.5419 88.9087 21.1719 92.2568L21.5098 92.5625C24.9952 95.6716 28.3602 97.0361 31.6396 97.0361C33.5944 97.0361 35.2737 96.4765 36.7656 95.3584C38.3384 94.1797 39.5584 92.6358 40.4238 90.6689C41.3111 88.5725 41.7549 86.3753 41.7549 84.0576C41.7548 82.1007 41.1736 80.256 39.9336 78.4717C38.5802 76.5243 36.8571 74.7316 34.7412 73.0996L34.707 73.0732L34.6738 73.0449C32.5167 71.2584 29.5289 69.0494 25.6855 66.4092L25.666 66.3955C21.0433 63.1541 17.3004 60.3756 14.4541 58.0674L14.4365 58.0537L14.4209 58.04C11.4369 55.5337 8.87852 52.5976 6.74805 49.2432L6.73828 49.2285L6.72949 49.2139C4.544 45.6652 3.4541 41.7428 3.4541 37.5039C3.45417 32.941 4.89224 28.2118 7.57812 23.3555C10.2456 18.4519 13.5106 14.304 17.3867 10.9473C21.2769 7.55065 25.2322 5.50009 29.1885 5.5C33.1964 5.5 37.7597 6.14407 42.8506 7.38477L43.7803 7.61621C48.3624 8.7806 51.9661 10.0678 54.4297 11.5361L55.6494 12.2627V39.6416Z" stroke="white" stroke-width="5"/>
</svg>
